<svg xmlns="http://www.w3.org/2000/svg" width="1024" height="1024" viewBox="0 0 1024 1024" version="1.1"><path d="M 496.500 77.684 C 435.361 80.234, 371.569 103.636, 323.101 141.296 C 309.763 151.659, 282.550 178.557, 272.814 191 C 238.601 234.727, 219.188 279.521, 210.840 334 C 207.871 353.379, 207.599 395.646, 210.318 415 C 216.695 460.371, 229.826 496.875, 254.563 538 C 265.329 555.897, 262.688 551.945, 323.895 641.742 C 387.206 734.626, 438.620 810.669, 479.678 872.150 C 497.180 898.358, 511.811 919.846, 512.191 919.900 C 512.572 919.955, 524.779 902.337, 539.319 880.750 C 563.424 844.962, 591.899 803.021, 637.934 735.500 C 647.308 721.750, 665.671 694.646, 678.739 675.270 C 691.808 655.893, 708.381 631.368, 715.570 620.770 C 749.101 571.332, 764.249 548.524, 771.220 536.980 C 800.294 488.829, 814.957 440.777, 816.680 388 C 818.597 329.303, 804.638 275.456, 774.255 224.338 C 735.686 159.447, 672.546 110.913, 598.824 89.489 C 576.806 83.091, 557.713 79.816, 532 78.028 C 518.211 77.069, 512.548 77.014, 496.500 77.684 M 498 324 L 498 464 516 464 L 534 464 534 324 L 534 184 516 184 L 498 184 498 324 M 376.925 298.981 C 358.441 301.363, 341.114 310.519, 327.725 324.980 C 305.625 348.850, 299.944 389.923, 314.480 420.744 C 327.523 448.402, 351.791 464.951, 383 467.471 C 399.403 468.795, 418.582 464.667, 431.021 457.134 L 437.500 453.211 437.800 458.606 L 438.100 464 456.550 464 L 475 464 475 382.500 L 475 301 457.500 301 C 447.875 301, 439.663 301.113, 439.250 301.250 C 438.837 301.387, 438.528 304.253, 438.562 307.617 L 438.623 313.734 433.062 310.165 C 417.640 300.270, 397.721 296.301, 376.925 298.981 M 619.156 299.076 C 603.027 301.169, 587.406 308.842, 574.661 320.934 C 564.133 330.923, 557.099 342.731, 552.760 357.702 C 550.796 364.477, 550.500 367.795, 550.500 383 C 550.500 403.511, 551.977 410.291, 559.747 425.432 C 563.539 432.821, 566.168 436.267, 573.950 444.043 C 588.625 458.708, 602.439 464.975, 624.915 467.166 C 683.501 472.877, 726.737 425.366, 716.480 366.548 C 709.397 325.926, 674.766 297.551, 633 298.147 C 628.875 298.205, 622.645 298.624, 619.156 299.076 M 381 334.090 C 353.817 338.838, 336.641 367.372, 343.837 395.829 C 349.858 419.638, 370.040 434.427, 394.083 432.649 C 430.418 429.962, 450.359 392.672, 433.466 359 C 428.391 348.884, 416.004 338.464, 405.547 335.514 C 398.659 333.570, 387.637 332.931, 381 334.090 M 622.402 334.486 C 601.793 338.969, 587.734 356.157, 585.488 379.617 C 583.659 398.726, 594.499 419.534, 610.320 427.280 C 640.791 442.200, 674.791 426.158, 681.667 393.617 C 687.430 366.343, 668.712 338.227, 642 334.035 C 633.773 332.744, 630.009 332.831, 622.402 334.486" stroke="none" fill="#fbfbfb" fill-rule="evenodd"/><path d="M 487.500 52.602 C 421.582 59.357, 376.406 74.626, 328 106.511 C 277.374 139.858, 235.044 189.884, 209.968 246 C 197.724 273.402, 187.981 309.895, 184.473 341.500 C 182.668 357.752, 182.448 391.214, 184.030 408.689 C 186.693 438.114, 193.463 466.624, 204.575 495.214 C 209.247 507.233, 223.329 535.861, 230.541 548 C 236.477 557.991, 265.121 601.028, 294.437 644 C 304.005 658.025, 324.787 688.625, 340.619 712 C 356.452 735.375, 380.252 770.475, 393.508 790 C 406.764 809.525, 425.218 836.750, 434.517 850.500 C 443.816 864.250, 461.956 891.025, 474.828 910 C 487.700 928.975, 501.394 949.363, 505.259 955.307 C 509.124 961.250, 512.621 965.750, 513.029 965.307 C 513.437 964.863, 523.901 949.425, 536.283 931 C 548.664 912.575, 569.156 882.200, 581.822 863.500 C 594.487 844.800, 615.941 813.075, 629.497 793 C 643.053 772.925, 660.704 746.825, 668.721 735 C 676.739 723.175, 692.108 700.450, 702.874 684.500 C 713.641 668.550, 731.179 642.675, 741.848 627 C 784.191 564.791, 795.942 546.195, 807.391 523.274 C 824.471 489.084, 833.083 462.216, 839.053 424.500 C 842.060 405.504, 842.764 369.138, 840.574 346 C 832.178 257.319, 788.283 177.674, 717 121.783 C 669.024 84.166, 614.814 61.843, 553.500 54.454 C 541.200 52.972, 496.211 51.709, 487.500 52.602 M 496.500 77.684 C 435.361 80.234, 371.569 103.636, 323.101 141.296 C 309.763 151.659, 282.550 178.557, 272.814 191 C 238.601 234.727, 219.188 279.521, 210.840 334 C 207.871 353.379, 207.599 395.646, 210.318 415 C 216.695 460.371, 229.826 496.875, 254.563 538 C 265.329 555.897, 262.688 551.945, 323.895 641.742 C 387.206 734.626, 438.620 810.669, 479.678 872.150 C 497.180 898.358, 511.811 919.846, 512.191 919.900 C 512.572 919.955, 524.779 902.337, 539.319 880.750 C 563.424 844.962, 591.899 803.021, 637.934 735.500 C 647.308 721.750, 665.671 694.646, 678.739 675.270 C 691.808 655.893, 708.381 631.368, 715.570 620.770 C 749.101 571.332, 764.249 548.524, 771.220 536.980 C 800.294 488.829, 814.957 440.777, 816.680 388 C 818.597 329.303, 804.638 275.456, 774.255 224.338 C 735.686 159.447, 672.546 110.913, 598.824 89.489 C 576.806 83.091, 557.713 79.816, 532 78.028 C 518.211 77.069, 512.548 77.014, 496.500 77.684 M 498 324 L 498 464 516 464 L 534 464 534 324 L 534 184 516 184 L 498 184 498 324 M 376.925 298.981 C 358.441 301.363, 341.114 310.519, 327.725 324.980 C 305.625 348.850, 299.944 389.923, 314.480 420.744 C 327.523 448.402, 351.791 464.951, 383 467.471 C 399.403 468.795, 418.582 464.667, 431.021 457.134 L 437.500 453.211 437.800 458.606 L 438.100 464 456.550 464 L 475 464 475 382.500 L 475 301 457.500 301 C 447.875 301, 439.663 301.113, 439.250 301.250 C 438.837 301.387, 438.528 304.253, 438.562 307.617 L 438.623 313.734 433.062 310.165 C 417.640 300.270, 397.721 296.301, 376.925 298.981 M 619.156 299.076 C 603.027 301.169, 587.406 308.842, 574.661 320.934 C 564.133 330.923, 557.099 342.731, 552.760 357.702 C 550.796 364.477, 550.500 367.795, 550.500 383 C 550.500 403.511, 551.977 410.291, 559.747 425.432 C 563.539 432.821, 566.168 436.267, 573.950 444.043 C 588.625 458.708, 602.439 464.975, 624.915 467.166 C 683.501 472.877, 726.737 425.366, 716.480 366.548 C 709.397 325.926, 674.766 297.551, 633 298.147 C 628.875 298.205, 622.645 298.624, 619.156 299.076 M 381 334.090 C 353.817 338.838, 336.641 367.372, 343.837 395.829 C 349.858 419.638, 370.040 434.427, 394.083 432.649 C 430.418 429.962, 450.359 392.672, 433.466 359 C 428.391 348.884, 416.004 338.464, 405.547 335.514 C 398.659 333.570, 387.637 332.931, 381 334.090 M 622.402 334.486 C 601.793 338.969, 587.734 356.157, 585.488 379.617 C 583.659 398.726, 594.499 419.534, 610.320 427.280 C 640.791 442.200, 674.791 426.158, 681.667 393.617 C 687.430 366.343, 668.712 338.227, 642 334.035 C 633.773 332.744, 630.009 332.831, 622.402 334.486" stroke="none" fill="#040404" fill-rule="evenodd"/></svg>