<svg xmlns="http://www.w3.org/2000/svg" width="1024" height="1024" viewBox="0 0 1024 1024" version="1.1"><path d="M 487.568 53.095 C 444.187 56.022, 399.564 68.132, 361.248 87.376 C 276.515 129.931, 212.556 210.871, 191.448 302.256 C 184.702 331.463, 182.445 354.839, 183.320 386.417 C 184.736 437.478, 194.736 477.339, 217.645 523.238 C 230.509 549.012, 239.563 563.120, 301.885 654.500 C 315.763 674.850, 346.555 720.197, 370.309 755.271 C 394.064 790.344, 423.478 833.769, 435.673 851.771 C 447.869 869.772, 470.055 902.613, 484.976 924.750 C 499.897 946.888, 512.419 964.990, 512.803 964.977 C 513.186 964.964, 516.035 961.027, 519.133 956.227 C 522.231 951.427, 543.328 920.050, 566.014 886.500 C 588.701 852.950, 614.706 814.475, 623.804 801 C 632.902 787.525, 644.473 770.425, 649.517 763 C 654.561 755.575, 675.252 724.975, 695.496 695 C 715.740 665.025, 742.093 626.100, 754.058 608.500 C 796.910 545.466, 811.632 519.343, 823.960 484.467 C 846.967 419.377, 847.863 344.609, 826.437 277.861 C 802.781 204.167, 751.493 139.920, 683.721 99.085 C 625.565 64.044, 558.461 48.311, 487.568 53.095 M 486.947 78.096 C 453.275 80.693, 415.297 90.435, 383.980 104.509 C 316.663 134.761, 260.776 191.339, 232.026 258.340 C 219.590 287.324, 212.589 314.754, 208.942 348.787 C 207.404 363.142, 208.266 402.195, 210.470 418 C 216.101 458.378, 229.969 496.902, 252.679 535.253 C 260.309 548.139, 283.909 583.730, 313.767 627.378 C 355.351 688.168, 384.556 731.053, 399.659 753.500 C 408.171 766.150, 420.786 784.825, 427.693 795 C 444.976 820.461, 502.468 905.977, 507.878 914.270 C 510.306 917.993, 512.380 920.918, 512.487 920.770 C 512.593 920.621, 524.533 902.950, 539.020 881.500 C 564.099 844.366, 625.192 754.375, 640.512 732 C 644.466 726.225, 659.839 703.500, 674.676 681.500 C 689.512 659.500, 710.232 628.858, 720.720 613.406 C 748.906 571.880, 762.965 550.733, 770.193 538.988 C 796.837 495.691, 811.883 451.412, 816.080 403.949 C 817.546 387.360, 816.735 351.629, 814.559 337 C 798.796 231.023, 731.066 143.116, 633.132 101.525 C 587.600 82.188, 537.659 74.184, 486.947 78.096 M 498 324 L 498 464 516 464 L 534 464 534 324 L 534 184 516 184 L 498 184 498 324 M 378 298.962 C 355.497 301.818, 335.069 313.795, 322.499 331.500 C 316.885 339.407, 313.817 345.677, 310.511 356 C 306.824 367.509, 305.913 387.275, 308.426 401.230 C 313.629 430.129, 334.464 454.289, 361.710 463.017 C 386.004 470.799, 416.320 467.579, 433.247 455.418 C 435.864 453.538, 438.229 452, 438.502 452 C 438.776 452, 439 454.700, 439 458 L 439 464 456.500 464 L 474 464 474 382.500 L 474 301 456.500 301 L 439 301 439 307.622 L 439 314.244 436.750 312.620 C 431.463 308.805, 418.211 302.716, 411.406 300.976 C 402.696 298.748, 387.096 297.808, 378 298.962 M 620.500 299.134 C 594.075 302.460, 570.499 319.059, 558.632 342.693 C 557.198 345.548, 554.813 351.848, 553.332 356.693 C 550.853 364.802, 550.638 366.887, 550.615 383 C 550.592 399.251, 550.784 401.129, 553.307 409.307 C 556.552 419.824, 559.753 426.422, 565.530 434.500 C 577.055 450.615, 593.762 461.407, 613.500 465.484 C 622.817 467.409, 641.806 467.667, 651.031 465.994 C 683.442 460.117, 708.946 435.231, 716.103 402.500 C 718.224 392.802, 717.707 370.138, 715.146 360.500 C 712.486 350.493, 705.497 336.275, 699.552 328.778 C 681.711 306.280, 652.063 295.162, 620.500 299.134 M 378.951 334.363 C 352.795 339.996, 336.881 367.656, 343.540 395.907 C 347.725 413.664, 362.401 428.226, 379.799 431.885 C 396.810 435.463, 413.563 430.643, 425.394 418.767 C 432.534 411.600, 436.366 404.493, 438.486 394.483 C 440.331 385.772, 440.345 381.292, 438.553 372.837 C 436.506 363.180, 432.598 355.712, 425.770 348.413 C 413.923 335.748, 396.623 330.557, 378.951 334.363 M 623 334.091 C 620.525 334.571, 615.285 336.548, 611.355 338.484 C 591.622 348.208, 580.964 372.957, 586.614 395.936 C 592.278 418.974, 610.338 433, 634.339 433 C 666.402 433, 689.187 402.903, 681.158 371.154 C 678.484 360.580, 674.609 353.839, 667.068 346.646 C 655.339 335.458, 639.389 330.914, 623 334.091" stroke="none" fill="#fafafa" fill-rule="evenodd"/><path d="M 486.947 78.096 C 453.275 80.693, 415.297 90.435, 383.980 104.509 C 316.663 134.761, 260.776 191.339, 232.026 258.340 C 219.590 287.324, 212.589 314.754, 208.942 348.787 C 207.404 363.142, 208.266 402.195, 210.470 418 C 216.101 458.378, 229.969 496.902, 252.679 535.253 C 260.309 548.139, 283.909 583.730, 313.767 627.378 C 355.351 688.168, 384.556 731.053, 399.659 753.500 C 408.171 766.150, 420.786 784.825, 427.693 795 C 444.976 820.461, 502.468 905.977, 507.878 914.270 C 510.306 917.993, 512.380 920.918, 512.487 920.770 C 512.593 920.621, 524.533 902.950, 539.020 881.500 C 564.099 844.366, 625.192 754.375, 640.512 732 C 644.466 726.225, 659.839 703.500, 674.676 681.500 C 689.512 659.500, 710.232 628.858, 720.720 613.406 C 748.906 571.880, 762.965 550.733, 770.193 538.988 C 796.837 495.691, 811.883 451.412, 816.080 403.949 C 817.546 387.360, 816.735 351.629, 814.559 337 C 798.796 231.023, 731.066 143.116, 633.132 101.525 C 587.600 82.188, 537.659 74.184, 486.947 78.096 M 498 324 L 498 464 516 464 L 534 464 534 324 L 534 184 516 184 L 498 184 498 324 M 378 298.962 C 355.497 301.818, 335.069 313.795, 322.499 331.500 C 316.885 339.407, 313.817 345.677, 310.511 356 C 306.824 367.509, 305.913 387.275, 308.426 401.230 C 313.629 430.129, 334.464 454.289, 361.710 463.017 C 386.004 470.799, 416.320 467.579, 433.247 455.418 C 435.864 453.538, 438.229 452, 438.502 452 C 438.776 452, 439 454.700, 439 458 L 439 464 456.500 464 L 474 464 474 382.500 L 474 301 456.500 301 L 439 301 439 307.622 L 439 314.244 436.750 312.620 C 431.463 308.805, 418.211 302.716, 411.406 300.976 C 402.696 298.748, 387.096 297.808, 378 298.962 M 620.500 299.134 C 594.075 302.460, 570.499 319.059, 558.632 342.693 C 557.198 345.548, 554.813 351.848, 553.332 356.693 C 550.853 364.802, 550.638 366.887, 550.615 383 C 550.592 399.251, 550.784 401.129, 553.307 409.307 C 556.552 419.824, 559.753 426.422, 565.530 434.500 C 577.055 450.615, 593.762 461.407, 613.500 465.484 C 622.817 467.409, 641.806 467.667, 651.031 465.994 C 683.442 460.117, 708.946 435.231, 716.103 402.500 C 718.224 392.802, 717.707 370.138, 715.146 360.500 C 712.486 350.493, 705.497 336.275, 699.552 328.778 C 681.711 306.280, 652.063 295.162, 620.500 299.134 M 378.951 334.363 C 352.795 339.996, 336.881 367.656, 343.540 395.907 C 347.725 413.664, 362.401 428.226, 379.799 431.885 C 396.810 435.463, 413.563 430.643, 425.394 418.767 C 432.534 411.600, 436.366 404.493, 438.486 394.483 C 440.331 385.772, 440.345 381.292, 438.553 372.837 C 436.506 363.180, 432.598 355.712, 425.770 348.413 C 413.923 335.748, 396.623 330.557, 378.951 334.363 M 623 334.091 C 620.525 334.571, 615.285 336.548, 611.355 338.484 C 591.622 348.208, 580.964 372.957, 586.614 395.936 C 592.278 418.974, 610.338 433, 634.339 433 C 666.402 433, 689.187 402.903, 681.158 371.154 C 678.484 360.580, 674.609 353.839, 667.068 346.646 C 655.339 335.458, 639.389 330.914, 623 334.091" stroke="none" fill="#040404" fill-rule="evenodd"/></svg>